<?xml version="1.0" encoding="UTF-8"?>
<!DOCTYPE svg PUBLIC "-//W3C//DTD SVG 1.1//EN" "http://www.w3.org/Graphics/SVG/1.1/DTD/svg11.dtd">
<svg xmlns="http://www.w3.org/2000/svg" version="1.1" width="249px" height="249px" style="shape-rendering:geometricPrecision; text-rendering:geometricPrecision; image-rendering:optimizeQuality; fill-rule:evenodd; clip-rule:evenodd" xmlns:xlink="http://www.w3.org/1999/xlink">
<g><path style="opacity:0.099" fill="#fefffe" d="M -0.5,0.5 C 82.1667,0.5 164.833,0.5 247.5,0.5C 247.5,83.1667 247.5,165.833 247.5,248.5C 164.833,248.5 82.1667,248.5 -0.5,248.5C -0.5,165.833 -0.5,83.1667 -0.5,0.5 Z M 2.5,3.5 C 21.8333,3.5 41.1667,3.5 60.5,3.5C 60.8266,8.21369 60.4933,12.8804 59.5,17.5C 41.5,28.1667 27.1667,42.5 16.5,60.5C 11.8804,61.4933 7.21369,61.8266 2.5,61.5C 2.5,42.1667 2.5,22.8333 2.5,3.5 Z M 63.5,3.5 C 73.1724,3.33353 82.8391,3.5002 92.5,4C 82.3203,6.27897 72.8203,10.1123 64,15.5C 63.5012,11.5138 63.3345,7.51383 63.5,3.5 Z M 104.5,3.5 C 110.167,3.5 115.833,3.5 121.5,3.5C 121.5,22.8333 121.5,42.1667 121.5,61.5C 102.167,61.5 82.8333,61.5 63.5,61.5C 63.1674,46.8182 63.5007,32.1515 64.5,17.5C 77.3212,11.0059 90.6546,6.33921 104.5,3.5 Z M 125.5,3.5 C 145.768,2.98374 164.768,7.65041 182.5,17.5C 183.499,32.1515 183.833,46.8182 183.5,61.5C 164.167,61.5 144.833,61.5 125.5,61.5C 125.5,42.1667 125.5,22.8333 125.5,3.5 Z M 154.5,4.5 C 163.986,3.5062 173.652,3.17287 183.5,3.5C 183.666,7.51383 183.499,11.5138 183,15.5C 174.209,9.95925 164.709,6.29258 154.5,4.5 Z M 186.5,3.5 C 205.833,3.5 225.167,3.5 244.5,3.5C 244.5,22.8333 244.5,42.1667 244.5,61.5C 239.786,61.8266 235.12,61.4933 230.5,60.5C 219.833,42.5 205.5,28.1667 187.5,17.5C 186.507,12.8804 186.173,8.21369 186.5,3.5 Z M 58.5,20.5 C 60.4819,33.7924 61.1486,47.4591 60.5,61.5C 46.8171,61.8325 33.1504,61.4992 19.5,60.5C 29.8383,44.496 42.8383,31.1626 58.5,20.5 Z M 186.5,20.5 C 203.41,30.4091 217.077,43.7424 227.5,60.5C 213.85,61.4992 200.183,61.8325 186.5,61.5C 186.5,47.8333 186.5,34.1667 186.5,20.5 Z M 2.5,64.5 C 6.51383,64.3345 10.5138,64.5012 14.5,65C 9.10322,73.8544 5.26988,83.3544 3,93.5C 2.5002,83.8391 2.33353,74.1724 2.5,64.5 Z M 16.5,64.5 C 31.1667,64.5 45.8333,64.5 60.5,64.5C 60.5,84.1667 60.5,103.833 60.5,123.5C 41.1667,123.5 21.8333,123.5 2.5,123.5C 1.97768,102.59 6.64435,82.9232 16.5,64.5 Z M 63.5,64.5 C 82.8333,64.5 102.167,64.5 121.5,64.5C 121.5,65.5 121.5,66.5 121.5,67.5C 106.167,67.5 90.8333,67.5 75.5,67.5C 75.5,86.1667 75.5,104.833 75.5,123.5C 71.5,123.5 67.5,123.5 63.5,123.5C 63.5,103.833 63.5,84.1667 63.5,64.5 Z M 125.5,64.5 C 144.833,64.5 164.167,64.5 183.5,64.5C 183.5,84.1667 183.5,103.833 183.5,123.5C 180.167,123.5 176.833,123.5 173.5,123.5C 173.5,104.833 173.5,86.1667 173.5,67.5C 157.5,67.5 141.5,67.5 125.5,67.5C 125.5,66.5 125.5,65.5 125.5,64.5 Z M 186.5,64.5 C 201.182,64.1674 215.848,64.5007 230.5,65.5C 240.514,83.5575 245.181,102.891 244.5,123.5C 225.167,123.5 205.833,123.5 186.5,123.5C 186.5,103.833 186.5,84.1667 186.5,64.5 Z M 232.5,65.5 C 236.298,64.5166 240.298,64.1832 244.5,64.5C 244.666,73.8393 244.5,83.1726 244,92.5C 241.595,82.7505 237.761,73.7505 232.5,65.5 Z M 96.5,88.5 C 104.833,88.5 113.167,88.5 121.5,88.5C 121.5,100.167 121.5,111.833 121.5,123.5C 113.167,123.5 104.833,123.5 96.5,123.5C 96.5,111.833 96.5,100.167 96.5,88.5 Z M 125.5,88.5 C 134.5,88.5 143.5,88.5 152.5,88.5C 152.5,100.167 152.5,111.833 152.5,123.5C 143.5,123.5 134.5,123.5 125.5,123.5C 125.5,111.833 125.5,100.167 125.5,88.5 Z M 2.5,126.5 C 21.8333,126.5 41.1667,126.5 60.5,126.5C 60.5,145.833 60.5,165.167 60.5,184.5C 46.1628,184.667 31.8295,184.5 17.5,184C 6.7974,166.358 1.7974,147.191 2.5,126.5 Z M 63.5,126.5 C 67.5,126.5 71.5,126.5 75.5,126.5C 75.5,144.833 75.5,163.167 75.5,181.5C 82.5,181.5 89.5,181.5 96.5,181.5C 96.5,163.167 96.5,144.833 96.5,126.5C 104.833,126.5 113.167,126.5 121.5,126.5C 121.5,145.833 121.5,165.167 121.5,184.5C 102.167,184.5 82.8333,184.5 63.5,184.5C 63.5,165.167 63.5,145.833 63.5,126.5 Z M 125.5,126.5 C 134.5,126.5 143.5,126.5 152.5,126.5C 152.5,144.833 152.5,163.167 152.5,181.5C 159.5,181.5 166.5,181.5 173.5,181.5C 173.5,163.167 173.5,144.833 173.5,126.5C 176.833,126.5 180.167,126.5 183.5,126.5C 183.5,145.833 183.5,165.167 183.5,184.5C 164.167,184.5 144.833,184.5 125.5,184.5C 125.5,165.167 125.5,145.833 125.5,126.5 Z M 186.5,126.5 C 205.833,126.5 225.167,126.5 244.5,126.5C 245.203,147.191 240.203,166.358 229.5,184C 215.171,184.5 200.837,184.667 186.5,184.5C 186.5,165.167 186.5,145.833 186.5,126.5 Z M 2.5,155.5 C 5.48543,165.319 9.48543,174.819 14.5,184C 10.5138,184.499 6.51383,184.666 2.5,184.5C 2.5,174.833 2.5,165.167 2.5,155.5 Z M 243.5,155.5 C 244.494,164.986 244.827,174.652 244.5,184.5C 240.486,184.666 236.486,184.499 232.5,184C 237.713,175.078 241.38,165.578 243.5,155.5 Z M 2.5,187.5 C 7.17853,187.334 11.8452,187.501 16.5,188C 27.6667,205.833 42.1667,220.333 60,231.5C 60.4993,236.489 60.6659,241.489 60.5,246.5C 41.1667,246.5 21.8333,246.5 2.5,246.5C 2.5,226.833 2.5,207.167 2.5,187.5 Z M 19.5,188.5 C 32.9898,187.504 46.6565,187.171 60.5,187.5C 60.6666,201.171 60.4999,214.837 60,228.5C 43.3083,218.308 29.8083,204.974 19.5,188.5 Z M 63.5,187.5 C 82.8333,187.5 102.167,187.5 121.5,187.5C 121.5,207.167 121.5,226.833 121.5,246.5C 100.984,245.913 81.8171,240.58 64,230.5C 63.5001,216.171 63.3334,201.837 63.5,187.5 Z M 125.5,187.5 C 144.833,187.5 164.167,187.5 183.5,187.5C 183.667,201.837 183.5,216.171 183,230.5C 165.183,240.58 146.016,245.913 125.5,246.5C 125.5,226.833 125.5,207.167 125.5,187.5 Z M 186.5,187.5 C 200.171,187.333 213.837,187.5 227.5,188C 217.333,204.833 203.833,218.333 187,228.5C 186.5,214.837 186.333,201.171 186.5,187.5 Z M 230.5,187.5 C 235.167,187.5 239.833,187.5 244.5,187.5C 244.5,207.167 244.5,226.833 244.5,246.5C 225.167,246.5 205.833,246.5 186.5,246.5C 186.334,241.489 186.501,236.489 187,231.5C 205.045,220.289 219.545,205.622 230.5,187.5 Z M 63.5,233.5 C 74.2614,239.144 85.5947,243.31 97.5,246C 86.1716,246.5 74.8382,246.667 63.5,246.5C 63.5,242.167 63.5,237.833 63.5,233.5 Z M 182.5,233.5 C 183.485,237.634 183.818,241.968 183.5,246.5C 172.162,246.667 160.828,246.5 149.5,246C 161.223,243.485 172.223,239.318 182.5,233.5 Z"/></g>
</svg>
